<svg xmlns="http://www.w3.org/2000/svg" viewBox="0 0 400 300">
  <rect width="400" height="300" fill="oklch(0.97 0.02 260)"/>
  <rect x="80" y="60" width="240" height="180" rx="12" fill="oklch(0.32 0.16 270)" opacity="0.15"/>
  <rect x="100" y="100" width="200" height="80" rx="4" fill="white" stroke="oklch(0.32 0.16 270)" stroke-width="2"/>
  <line x1="115" y1="100" x2="115" y2="180" stroke="oklch(0.32 0.16 270)" stroke-width="2"/>
  <line x1="130" y1="100" x2="130" y2="180" stroke="oklch(0.32 0.16 270)" stroke-width="1.5"/>
  <line x1="145" y1="100" x2="145" y2="180" stroke="oklch(0.32 0.16 270)" stroke-width="1.5"/>
  <line x1="160" y1="100" x2="160" y2="180" stroke="oklch(0.32 0.16 270)" stroke-width="1.5"/>
  <line x1="175" y1="100" x2="175" y2="180" stroke="oklch(0.32 0.16 270)" stroke-width="2"/>
  <line x1="190" y1="100" x2="190" y2="180" stroke="oklch(0.32 0.16 270)" stroke-width="1.5"/>
  <line x1="205" y1="100" x2="205" y2="180" stroke="oklch(0.32 0.16 270)" stroke-width="1.5"/>
  <line x1="220" y1="100" x2="220" y2="180" stroke="oklch(0.32 0.16 270)" stroke-width="1.5"/>
  <line x1="235" y1="100" x2="235" y2="180" stroke="oklch(0.32 0.16 270)" stroke-width="1.5"/>
  <line x1="250" y1="100" x2="250" y2="180" stroke="oklch(0.32 0.16 270)" stroke-width="2"/>
  <line x1="265" y1="100" x2="265" y2="180" stroke="oklch(0.32 0.16 270)" stroke-width="1.5"/>
  <line x1="280" y1="100" x2="280" y2="180" stroke="oklch(0.32 0.16 270)" stroke-width="1.5"/>
  <text x="200" y="50" text-anchor="middle" font-family="Georgia" font-size="14" fill="oklch(0.32 0.16 270)" font-weight="bold">Piano Lessons</text>
  <circle cx="200" cy="230" r="20" fill="oklch(0.56 0.14 195)" opacity="0.3"/>
  <circle cx="160" cy="245" r="12" fill="oklch(0.80 0.17 85)" opacity="0.3"/>
  <circle cx="240" cy="245" r="12" fill="oklch(0.80 0.17 85)" opacity="0.3"/>
</svg>